<svg width="1049" height="122" viewBox="0 0 1049 122" fill="none" xmlns="http://www.w3.org/2000/svg">
<line x1="42" y1="39" x2="943" y2="39" stroke="#C9C9C9" stroke-width="2" stroke-dasharray="5 5"/>
<line x1="81" y1="39" x2="943" y2="39.0001" stroke="#38B6FF" stroke-width="2"/>
<g filter="url(#filter0_bdi_1_750)">
<circle cx="41" cy="40" r="40" fill="#38B6FF"/>
</g>
<path d="M30.0243 40.085C30.0243 41.345 30.2843 42.485 30.8043 43.505C31.3343 44.525 32.0593 45.335 32.9793 45.935C33.8993 46.525 34.9643 46.82 36.1743 46.82C37.3843 46.82 38.4493 46.525 39.3693 45.935C40.2993 45.335 41.0243 44.525 41.5443 43.505C42.0643 42.485 42.3243 41.345 42.3243 40.085C42.3243 38.825 42.0643 37.69 41.5443 36.68C41.0243 35.66 40.2993 34.85 39.3693 34.25C38.4493 33.65 37.3843 33.35 36.1743 33.35C34.9643 33.35 33.8993 33.65 32.9793 34.25C32.0593 34.85 31.3343 35.66 30.8043 36.68C30.2843 37.69 30.0243 38.825 30.0243 40.085ZM26.1243 40.085C26.1243 38.645 26.3743 37.305 26.8743 36.065C27.3843 34.815 28.0943 33.725 29.0043 32.795C29.9143 31.865 30.9793 31.14 32.1993 30.62C33.4293 30.1 34.7543 29.84 36.1743 29.84C37.6143 29.84 38.9443 30.1 40.1643 30.62C41.3843 31.14 42.4443 31.865 43.3443 32.795C44.2543 33.725 44.9593 34.815 45.4593 36.065C45.9593 37.305 46.2093 38.645 46.2093 40.085C46.2093 41.535 45.9643 42.885 45.4743 44.135C44.9843 45.375 44.2893 46.465 43.3893 47.405C42.4893 48.335 41.4293 49.06 40.2093 49.58C38.9893 50.1 37.6443 50.36 36.1743 50.36C34.6843 50.36 33.3243 50.1 32.0943 49.58C30.8743 49.06 29.8143 48.335 28.9143 47.405C28.0243 46.465 27.3343 45.375 26.8443 44.135C26.3643 42.885 26.1243 41.535 26.1243 40.085ZM50.6756 34.925L47.4206 36.695V33.11L52.5656 30.2H54.4256V50H50.6756V34.925Z" fill="white"/>
<path d="M17.2636 100.16H19.8436L25.8196 116H23.1316L21.8236 112.376H15.2956L13.9756 116H11.2756L17.2636 100.16ZM16.1116 110.132H21.0076L18.5716 103.232H18.5356L16.1116 110.132ZM26.827 116V99.488H29.395V107.864C29.451 107.624 29.639 107.348 29.959 107.036C30.279 106.724 30.707 106.452 31.243 106.22C31.779 105.98 32.391 105.86 33.079 105.86C34.007 105.86 34.827 106.084 35.539 106.532C36.251 106.972 36.807 107.584 37.207 108.368C37.615 109.152 37.819 110.056 37.819 111.08C37.819 112.104 37.615 113.008 37.207 113.792C36.807 114.576 36.251 115.188 35.539 115.628C34.827 116.068 34.007 116.288 33.079 116.288C32.447 116.288 31.867 116.172 31.339 115.94C30.819 115.7 30.387 115.416 30.043 115.088C29.699 114.76 29.471 114.456 29.359 114.176V116H26.827ZM35.287 111.08C35.287 110.448 35.155 109.896 34.891 109.424C34.627 108.952 34.279 108.588 33.847 108.332C33.415 108.068 32.939 107.936 32.419 107.936C31.859 107.936 31.351 108.072 30.895 108.344C30.439 108.608 30.075 108.976 29.803 109.448C29.531 109.912 29.395 110.456 29.395 111.08C29.395 111.704 29.531 112.252 29.803 112.724C30.075 113.188 30.439 113.552 30.895 113.816C31.351 114.08 31.859 114.212 32.419 114.212C32.939 114.212 33.415 114.084 33.847 113.828C34.279 113.572 34.627 113.208 34.891 112.736C35.155 112.264 35.287 111.712 35.287 111.08ZM43.9073 116.288C42.8753 116.288 41.9553 116.064 41.1473 115.616C40.3473 115.16 39.7193 114.544 39.2633 113.768C38.8073 112.984 38.5793 112.096 38.5793 111.104C38.5793 110.112 38.8073 109.22 39.2633 108.428C39.7193 107.636 40.3473 107.012 41.1473 106.556C41.9553 106.092 42.8753 105.86 43.9073 105.86C44.9393 105.86 45.8513 106.092 46.6433 106.556C47.4353 107.012 48.0553 107.636 48.5033 108.428C48.9593 109.22 49.1873 110.112 49.1873 111.104C49.1873 112.096 48.9593 112.984 48.5033 113.768C48.0553 114.544 47.4353 115.16 46.6433 115.616C45.8513 116.064 44.9393 116.288 43.9073 116.288ZM43.9073 114.128C44.4833 114.128 44.9833 113.996 45.4073 113.732C45.8313 113.468 46.1593 113.108 46.3913 112.652C46.6233 112.196 46.7393 111.676 46.7393 111.092C46.7393 110.508 46.6233 109.988 46.3913 109.532C46.1593 109.068 45.8313 108.7 45.4073 108.428C44.9833 108.156 44.4833 108.02 43.9073 108.02C43.3313 108.02 42.8273 108.156 42.3953 108.428C41.9713 108.7 41.6393 109.068 41.3993 109.532C41.1673 109.988 41.0513 110.508 41.0513 111.092C41.0513 111.676 41.1673 112.196 41.3993 112.652C41.6393 113.108 41.9713 113.468 42.3953 113.732C42.8273 113.996 43.3313 114.128 43.9073 114.128ZM53.288 110.984C53.288 111.944 53.484 112.708 53.876 113.276C54.276 113.844 54.904 114.128 55.76 114.128C56.624 114.128 57.252 113.844 57.644 113.276C58.036 112.708 58.232 111.944 58.232 110.984V106.148H60.776V111.308C60.776 112.3 60.58 113.172 60.188 113.924C59.796 114.668 59.228 115.248 58.484 115.664C57.74 116.08 56.832 116.288 55.76 116.288C54.696 116.288 53.792 116.08 53.048 115.664C52.304 115.248 51.736 114.668 51.344 113.924C50.952 113.172 50.756 112.3 50.756 111.308V106.148H53.288V110.984ZM62.0247 106.148H63.8727V102.104H66.4167V106.148H68.8527V108.308H66.4167V112.52C66.4167 113.048 66.5047 113.444 66.6807 113.708C66.8647 113.972 67.1247 114.104 67.4607 114.104C67.7407 114.104 67.9607 114.052 68.1207 113.948C68.2887 113.844 68.3887 113.772 68.4207 113.732L69.3687 115.592C69.3207 115.64 69.1807 115.72 68.9487 115.832C68.7167 115.944 68.4167 116.048 68.0487 116.144C67.6807 116.24 67.2607 116.288 66.7887 116.288C65.9567 116.288 65.2607 116.04 64.7007 115.544C64.1487 115.048 63.8727 114.272 63.8727 113.216V108.308H62.0247V106.148Z" fill="black"/>
<g filter="url(#filter1_bdi_1_750)">
<circle cx="224" cy="40" r="40" fill="#38B6FF"/>
</g>
<path d="M209.921 40.085C209.921 41.345 210.181 42.485 210.701 43.505C211.231 44.525 211.956 45.335 212.876 45.935C213.796 46.525 214.861 46.82 216.071 46.82C217.281 46.82 218.346 46.525 219.266 45.935C220.196 45.335 220.921 44.525 221.441 43.505C221.961 42.485 222.221 41.345 222.221 40.085C222.221 38.825 221.961 37.69 221.441 36.68C220.921 35.66 220.196 34.85 219.266 34.25C218.346 33.65 217.281 33.35 216.071 33.35C214.861 33.35 213.796 33.65 212.876 34.25C211.956 34.85 211.231 35.66 210.701 36.68C210.181 37.69 209.921 38.825 209.921 40.085ZM206.021 40.085C206.021 38.645 206.271 37.305 206.771 36.065C207.281 34.815 207.991 33.725 208.901 32.795C209.811 31.865 210.876 31.14 212.096 30.62C213.326 30.1 214.651 29.84 216.071 29.84C217.511 29.84 218.841 30.1 220.061 30.62C221.281 31.14 222.341 31.865 223.241 32.795C224.151 33.725 224.856 34.815 225.356 36.065C225.856 37.305 226.106 38.645 226.106 40.085C226.106 41.535 225.861 42.885 225.371 44.135C224.881 45.375 224.186 46.465 223.286 47.405C222.386 48.335 221.326 49.06 220.106 49.58C218.886 50.1 217.541 50.36 216.071 50.36C214.581 50.36 213.221 50.1 211.991 49.58C210.771 49.06 209.711 48.335 208.811 47.405C207.921 46.465 207.231 45.375 206.741 44.135C206.261 42.885 206.021 41.535 206.021 40.085ZM235.072 33.05C234.352 33.05 233.717 33.215 233.167 33.545C232.617 33.865 232.157 34.24 231.787 34.67C231.417 35.1 231.132 35.49 230.932 35.84C230.742 36.19 230.637 36.395 230.617 36.455L227.392 34.985C227.412 34.875 227.507 34.635 227.677 34.265C227.847 33.885 228.112 33.445 228.472 32.945C228.842 32.445 229.322 31.96 229.912 31.49C230.502 31.02 231.222 30.63 232.072 30.32C232.922 30 233.922 29.84 235.072 29.84C236.352 29.84 237.427 30.02 238.297 30.38C239.177 30.74 239.877 31.225 240.397 31.835C240.927 32.435 241.307 33.11 241.537 33.86C241.777 34.6 241.897 35.35 241.897 36.11C241.897 36.97 241.712 37.815 241.342 38.645C240.982 39.475 240.507 40.275 239.917 41.045C239.337 41.805 238.712 42.515 238.042 43.175C237.372 43.825 236.727 44.405 236.107 44.915C235.497 45.415 234.972 45.82 234.532 46.13C234.092 46.44 233.822 46.635 233.722 46.715H241.732V50H228.022V47C228.232 46.84 228.622 46.55 229.192 46.13C229.762 45.7 230.427 45.18 231.187 44.57C231.947 43.96 232.727 43.295 233.527 42.575C234.337 41.855 235.087 41.115 235.777 40.355C236.477 39.595 237.042 38.85 237.472 38.12C237.912 37.38 238.132 36.695 238.132 36.065C238.132 34.965 237.867 34.19 237.337 33.74C236.807 33.28 236.052 33.05 235.072 33.05Z" fill="white"/>
<path d="M161.53 100.16H166.402C167.394 100.16 168.29 100.328 169.09 100.664C169.898 101 170.542 101.516 171.022 102.212C171.502 102.908 171.742 103.804 171.742 104.9C171.742 105.996 171.502 106.912 171.022 107.648C170.542 108.376 169.898 108.924 169.09 109.292C168.29 109.66 167.394 109.844 166.402 109.844H164.05V116H161.53V100.16ZM164.05 107.78H165.706C166.322 107.78 166.882 107.692 167.386 107.516C167.898 107.332 168.302 107.032 168.598 106.616C168.902 106.2 169.054 105.648 169.054 104.96C169.054 104.264 168.902 103.72 168.598 103.328C168.302 102.928 167.898 102.644 167.386 102.476C166.882 102.308 166.322 102.224 165.706 102.224H164.05V107.78ZM175.589 116H173.033V106.148H175.589V107.792H175.529C175.585 107.592 175.737 107.344 175.985 107.048C176.241 106.744 176.593 106.472 177.041 106.232C177.489 105.984 178.029 105.86 178.661 105.86C179.117 105.86 179.525 105.924 179.885 106.052C180.245 106.18 180.501 106.308 180.653 106.436L179.621 108.548C179.517 108.42 179.321 108.296 179.033 108.176C178.753 108.048 178.405 107.984 177.989 107.984C177.469 107.984 177.029 108.136 176.669 108.44C176.317 108.744 176.049 109.108 175.865 109.532C175.681 109.956 175.589 110.352 175.589 110.72V116ZM185.873 116.288C184.841 116.288 183.921 116.064 183.113 115.616C182.313 115.16 181.685 114.544 181.229 113.768C180.773 112.984 180.545 112.096 180.545 111.104C180.545 110.112 180.773 109.22 181.229 108.428C181.685 107.636 182.313 107.012 183.113 106.556C183.921 106.092 184.841 105.86 185.873 105.86C186.905 105.86 187.817 106.092 188.609 106.556C189.401 107.012 190.021 107.636 190.469 108.428C190.925 109.22 191.153 110.112 191.153 111.104C191.153 112.096 190.925 112.984 190.469 113.768C190.021 114.544 189.401 115.16 188.609 115.616C187.817 116.064 186.905 116.288 185.873 116.288ZM185.873 114.128C186.449 114.128 186.949 113.996 187.373 113.732C187.797 113.468 188.125 113.108 188.357 112.652C188.589 112.196 188.705 111.676 188.705 111.092C188.705 110.508 188.589 109.988 188.357 109.532C188.125 109.068 187.797 108.7 187.373 108.428C186.949 108.156 186.449 108.02 185.873 108.02C185.297 108.02 184.793 108.156 184.361 108.428C183.937 108.7 183.605 109.068 183.365 109.532C183.133 109.988 183.017 110.508 183.017 111.092C183.017 111.676 183.133 112.196 183.365 112.652C183.605 113.108 183.937 113.468 184.361 113.732C184.793 113.996 185.297 114.128 185.873 114.128ZM191.965 106.148H193.861V103.412C193.861 102.428 194.045 101.628 194.413 101.012C194.781 100.388 195.249 99.932 195.817 99.644C196.393 99.348 196.985 99.2 197.593 99.2C198.337 99.2 198.905 99.304 199.297 99.512C199.697 99.712 199.941 99.852 200.029 99.932L199.021 101.852C198.973 101.804 198.853 101.72 198.661 101.6C198.469 101.472 198.209 101.408 197.881 101.408C197.641 101.408 197.409 101.464 197.185 101.576C196.969 101.688 196.785 101.908 196.633 102.236C196.481 102.564 196.405 103.044 196.405 103.676V106.148H199.105V108.308H196.405V116H193.861V108.308H191.965V106.148ZM201.073 116V106.148H203.629V116H201.073ZM202.381 103.196C201.949 103.196 201.577 103.04 201.265 102.728C200.961 102.416 200.809 102.044 200.809 101.612C200.809 101.18 200.961 100.808 201.265 100.496C201.577 100.176 201.949 100.016 202.381 100.016C202.669 100.016 202.933 100.092 203.173 100.244C203.421 100.388 203.617 100.58 203.761 100.82C203.913 101.052 203.989 101.316 203.989 101.612C203.989 102.044 203.833 102.416 203.521 102.728C203.209 103.04 202.829 103.196 202.381 103.196ZM208.758 116H206.178V99.488H208.758V116ZM212.84 111.68C212.856 112.2 212.98 112.668 213.212 113.084C213.444 113.5 213.784 113.828 214.232 114.068C214.688 114.3 215.244 114.416 215.9 114.416C216.468 114.416 216.956 114.34 217.364 114.188C217.78 114.028 218.124 113.84 218.396 113.624C218.668 113.4 218.868 113.192 218.996 113L220.136 114.548C219.888 114.884 219.576 115.184 219.2 115.448C218.824 115.712 218.356 115.916 217.796 116.06C217.244 116.212 216.56 116.288 215.744 116.288C214.672 116.288 213.74 116.068 212.948 115.628C212.156 115.188 211.54 114.568 211.1 113.768C210.668 112.968 210.452 112.032 210.452 110.96C210.452 110 210.652 109.136 211.052 108.368C211.452 107.592 212.032 106.98 212.792 106.532C213.56 106.084 214.48 105.86 215.552 105.86C216.552 105.86 217.42 106.06 218.156 106.46C218.892 106.86 219.46 107.436 219.86 108.188C220.268 108.932 220.472 109.832 220.472 110.888C220.472 110.952 220.468 111.084 220.46 111.284C220.46 111.484 220.452 111.616 220.436 111.68H212.84ZM218.072 109.808C218.064 109.552 217.976 109.26 217.808 108.932C217.648 108.604 217.388 108.32 217.028 108.08C216.668 107.832 216.188 107.708 215.588 107.708C214.972 107.708 214.472 107.828 214.088 108.068C213.704 108.3 213.42 108.58 213.236 108.908C213.052 109.228 212.944 109.528 212.912 109.808H218.072ZM227.992 100.16H230.512V116H227.992V100.16ZM245.539 105.86C246.275 105.86 246.907 106.016 247.435 106.328C247.971 106.64 248.383 107.12 248.671 107.768C248.967 108.416 249.115 109.244 249.115 110.252V116H246.583V110.708C246.583 109.756 246.447 109.032 246.175 108.536C245.911 108.04 245.411 107.792 244.675 107.792C244.275 107.792 243.899 107.9 243.547 108.116C243.195 108.332 242.911 108.656 242.695 109.088C242.487 109.512 242.383 110.052 242.383 110.708V116H240.007V110.708C240.007 109.756 239.843 109.032 239.515 108.536C239.195 108.04 238.715 107.792 238.075 107.792C237.667 107.792 237.291 107.896 236.947 108.104C236.603 108.312 236.327 108.632 236.119 109.064C235.911 109.496 235.807 110.044 235.807 110.708V116H233.263V106.148H235.807V107.624C235.895 107.376 236.091 107.116 236.395 106.844C236.707 106.572 237.095 106.34 237.559 106.148C238.023 105.956 238.531 105.86 239.083 105.86C239.683 105.86 240.179 105.972 240.571 106.196C240.971 106.412 241.287 106.684 241.519 107.012C241.759 107.34 241.935 107.668 242.047 107.996C242.159 107.668 242.375 107.34 242.695 107.012C243.023 106.684 243.431 106.412 243.919 106.196C244.407 105.972 244.947 105.86 245.539 105.86ZM259.121 116V114.176C259.057 114.368 258.873 114.632 258.569 114.968C258.273 115.304 257.865 115.608 257.345 115.88C256.833 116.152 256.225 116.288 255.521 116.288C254.601 116.288 253.773 116.068 253.037 115.628C252.301 115.188 251.721 114.576 251.297 113.792C250.873 113.008 250.661 112.104 250.661 111.08C250.661 110.056 250.873 109.152 251.297 108.368C251.721 107.584 252.301 106.972 253.037 106.532C253.773 106.084 254.601 105.86 255.521 105.86C256.209 105.86 256.805 105.98 257.309 106.22C257.813 106.46 258.217 106.736 258.521 107.048C258.833 107.36 259.025 107.632 259.097 107.864V106.148H261.641V116H259.121ZM253.193 111.08C253.193 111.712 253.333 112.264 253.613 112.736C253.893 113.208 254.257 113.572 254.705 113.828C255.161 114.084 255.649 114.212 256.169 114.212C256.729 114.212 257.225 114.08 257.657 113.816C258.097 113.552 258.441 113.188 258.689 112.724C258.945 112.252 259.073 111.704 259.073 111.08C259.073 110.456 258.945 109.912 258.689 109.448C258.441 108.976 258.097 108.608 257.657 108.344C257.225 108.072 256.729 107.936 256.169 107.936C255.649 107.936 255.161 108.068 254.705 108.332C254.257 108.588 253.893 108.952 253.613 109.424C253.333 109.896 253.193 110.448 253.193 111.08ZM268.649 121.268C267.897 121.268 267.197 121.192 266.549 121.04C265.909 120.896 265.337 120.676 264.833 120.38C264.329 120.092 263.921 119.736 263.609 119.312L265.205 117.728C265.373 117.936 265.589 118.152 265.853 118.376C266.117 118.608 266.465 118.8 266.897 118.952C267.329 119.112 267.877 119.192 268.541 119.192C269.189 119.192 269.741 119.06 270.197 118.796C270.661 118.532 271.013 118.168 271.253 117.704C271.501 117.248 271.625 116.72 271.625 116.12V115.82H274.145V116.276C274.145 117.364 273.901 118.276 273.413 119.012C272.925 119.756 272.265 120.316 271.433 120.692C270.601 121.076 269.673 121.268 268.649 121.268ZM271.625 116V114.176C271.561 114.368 271.377 114.632 271.073 114.968C270.777 115.304 270.369 115.608 269.849 115.88C269.337 116.152 268.729 116.288 268.025 116.288C267.105 116.288 266.277 116.068 265.541 115.628C264.805 115.188 264.225 114.576 263.801 113.792C263.377 113.008 263.165 112.104 263.165 111.08C263.165 110.056 263.377 109.152 263.801 108.368C264.225 107.584 264.805 106.972 265.541 106.532C266.277 106.084 267.105 105.86 268.025 105.86C268.713 105.86 269.309 105.98 269.813 106.22C270.317 106.46 270.721 106.736 271.025 107.048C271.337 107.36 271.529 107.632 271.601 107.864V106.148H274.145V116H271.625ZM265.697 111.08C265.697 111.712 265.837 112.264 266.117 112.736C266.397 113.208 266.761 113.572 267.209 113.828C267.665 114.084 268.153 114.212 268.673 114.212C269.233 114.212 269.729 114.08 270.161 113.816C270.601 113.552 270.945 113.188 271.193 112.724C271.449 112.252 271.577 111.704 271.577 111.08C271.577 110.456 271.449 109.912 271.193 109.448C270.945 108.976 270.601 108.608 270.161 108.344C269.729 108.072 269.233 107.936 268.673 107.936C268.153 107.936 267.665 108.068 267.209 108.332C266.761 108.588 266.397 108.952 266.117 109.424C265.837 109.896 265.697 110.448 265.697 111.08ZM278.164 111.68C278.18 112.2 278.304 112.668 278.536 113.084C278.768 113.5 279.108 113.828 279.556 114.068C280.012 114.3 280.568 114.416 281.224 114.416C281.792 114.416 282.28 114.34 282.688 114.188C283.104 114.028 283.448 113.84 283.72 113.624C283.992 113.4 284.192 113.192 284.32 113L285.46 114.548C285.212 114.884 284.9 115.184 284.524 115.448C284.148 115.712 283.68 115.916 283.12 116.06C282.568 116.212 281.884 116.288 281.068 116.288C279.996 116.288 279.064 116.068 278.272 115.628C277.48 115.188 276.864 114.568 276.424 113.768C275.992 112.968 275.776 112.032 275.776 110.96C275.776 110 275.976 109.136 276.376 108.368C276.776 107.592 277.356 106.98 278.116 106.532C278.884 106.084 279.804 105.86 280.876 105.86C281.876 105.86 282.744 106.06 283.48 106.46C284.216 106.86 284.784 107.436 285.184 108.188C285.592 108.932 285.796 109.832 285.796 110.888C285.796 110.952 285.792 111.084 285.784 111.284C285.784 111.484 285.776 111.616 285.76 111.68H278.164ZM283.396 109.808C283.388 109.552 283.3 109.26 283.132 108.932C282.972 108.604 282.712 108.32 282.352 108.08C281.992 107.832 281.512 107.708 280.912 107.708C280.296 107.708 279.796 107.828 279.412 108.068C279.028 108.3 278.744 108.58 278.56 108.908C278.376 109.228 278.268 109.528 278.236 109.808H283.396Z" fill="black"/>
<g filter="url(#filter2_bdi_1_750)">
<circle cx="407" cy="40" r="40" fill="#38B6FF"/>
</g>
<path d="M392.86 40.085C392.86 41.345 393.12 42.485 393.64 43.505C394.17 44.525 394.895 45.335 395.815 45.935C396.735 46.525 397.8 46.82 399.01 46.82C400.22 46.82 401.285 46.525 402.205 45.935C403.135 45.335 403.86 44.525 404.38 43.505C404.9 42.485 405.16 41.345 405.16 40.085C405.16 38.825 404.9 37.69 404.38 36.68C403.86 35.66 403.135 34.85 402.205 34.25C401.285 33.65 400.22 33.35 399.01 33.35C397.8 33.35 396.735 33.65 395.815 34.25C394.895 34.85 394.17 35.66 393.64 36.68C393.12 37.69 392.86 38.825 392.86 40.085ZM388.96 40.085C388.96 38.645 389.21 37.305 389.71 36.065C390.22 34.815 390.93 33.725 391.84 32.795C392.75 31.865 393.815 31.14 395.035 30.62C396.265 30.1 397.59 29.84 399.01 29.84C400.45 29.84 401.78 30.1 403 30.62C404.22 31.14 405.28 31.865 406.18 32.795C407.09 33.725 407.795 34.815 408.295 36.065C408.795 37.305 409.045 38.645 409.045 40.085C409.045 41.535 408.8 42.885 408.31 44.135C407.82 45.375 407.125 46.465 406.225 47.405C405.325 48.335 404.265 49.06 403.045 49.58C401.825 50.1 400.48 50.36 399.01 50.36C397.52 50.36 396.16 50.1 394.93 49.58C393.71 49.06 392.65 48.335 391.75 47.405C390.86 46.465 390.17 45.375 389.68 44.135C389.2 42.885 388.96 41.535 388.96 40.085ZM410.917 33.845C411.007 33.515 411.202 33.12 411.502 32.66C411.802 32.2 412.212 31.76 412.732 31.34C413.262 30.91 413.912 30.555 414.682 30.275C415.462 29.985 416.372 29.84 417.412 29.84C418.672 29.84 419.772 30.075 420.712 30.545C421.662 31.005 422.397 31.645 422.917 32.465C423.447 33.285 423.712 34.23 423.712 35.3C423.712 36 423.577 36.64 423.307 37.22C423.047 37.8 422.707 38.28 422.287 38.66C421.877 39.04 421.442 39.28 420.982 39.38C421.492 39.44 422.012 39.665 422.542 40.055C423.072 40.445 423.517 40.97 423.877 41.63C424.237 42.29 424.417 43.075 424.417 43.985C424.417 45.215 424.112 46.31 423.502 47.27C422.902 48.23 422.067 48.985 420.997 49.535C419.937 50.085 418.717 50.36 417.337 50.36C415.937 50.36 414.742 50.115 413.752 49.625C412.772 49.135 411.987 48.535 411.397 47.825C410.817 47.115 410.427 46.43 410.227 45.77L413.662 44.045C413.792 44.485 414.012 44.94 414.322 45.41C414.642 45.88 415.052 46.28 415.552 46.61C416.062 46.93 416.652 47.09 417.322 47.09C418.032 47.09 418.637 46.95 419.137 46.67C419.637 46.39 420.022 46.01 420.292 45.53C420.562 45.04 420.697 44.485 420.697 43.865C420.697 43.215 420.537 42.675 420.217 42.245C419.907 41.815 419.497 41.5 418.987 41.3C418.477 41.09 417.922 40.985 417.322 40.985H416.932V38.255H417.442C417.962 38.255 418.442 38.15 418.882 37.94C419.322 37.72 419.672 37.41 419.932 37.01C420.192 36.6 420.322 36.12 420.322 35.57C420.322 34.82 420.072 34.185 419.572 33.665C419.072 33.145 418.337 32.885 417.367 32.885C416.797 32.885 416.302 32.98 415.882 33.17C415.472 33.35 415.132 33.58 414.862 33.86C414.602 34.13 414.397 34.4 414.247 34.67C414.107 34.93 414.022 35.14 413.992 35.3L410.917 33.845Z" fill="white"/>
<path d="M360.304 100.16H369.904V102.416H362.812V106.964H369.784V109.16H362.812V113.744H369.904V116H360.304V100.16ZM376.776 116.288C375.848 116.288 375.028 116.068 374.316 115.628C373.604 115.188 373.044 114.576 372.636 113.792C372.236 113.008 372.036 112.104 372.036 111.08C372.036 110.056 372.236 109.152 372.636 108.368C373.044 107.584 373.604 106.972 374.316 106.532C375.028 106.084 375.848 105.86 376.776 105.86C377.464 105.86 378.076 105.98 378.612 106.22C379.148 106.452 379.576 106.724 379.896 107.036C380.216 107.348 380.404 107.624 380.46 107.864V99.488H383.028V116H380.496V114.176C380.384 114.456 380.156 114.76 379.812 115.088C379.468 115.416 379.032 115.7 378.504 115.94C377.984 116.172 377.408 116.288 376.776 116.288ZM377.436 114.212C377.996 114.212 378.504 114.08 378.96 113.816C379.416 113.552 379.78 113.188 380.052 112.724C380.324 112.252 380.46 111.704 380.46 111.08C380.46 110.456 380.324 109.912 380.052 109.448C379.78 108.976 379.416 108.608 378.96 108.344C378.504 108.072 377.996 107.936 377.436 107.936C376.924 107.936 376.448 108.068 376.008 108.332C375.576 108.588 375.228 108.952 374.964 109.424C374.7 109.896 374.568 110.448 374.568 111.08C374.568 111.712 374.7 112.264 374.964 112.736C375.228 113.208 375.576 113.572 376.008 113.828C376.448 114.084 376.924 114.212 377.436 114.212ZM387.22 110.984C387.22 111.944 387.416 112.708 387.808 113.276C388.208 113.844 388.836 114.128 389.692 114.128C390.556 114.128 391.184 113.844 391.576 113.276C391.968 112.708 392.164 111.944 392.164 110.984V106.148H394.708V111.308C394.708 112.3 394.512 113.172 394.12 113.924C393.728 114.668 393.16 115.248 392.416 115.664C391.672 116.08 390.764 116.288 389.692 116.288C388.628 116.288 387.724 116.08 386.98 115.664C386.236 115.248 385.668 114.668 385.276 113.924C384.884 113.172 384.688 112.3 384.688 111.308V106.148H387.22V110.984ZM401.751 114.212C402.319 114.212 402.779 114.12 403.131 113.936C403.491 113.744 403.723 113.604 403.827 113.516L405.039 115.316C404.943 115.396 404.743 115.516 404.439 115.676C404.135 115.828 403.747 115.968 403.275 116.096C402.811 116.224 402.283 116.288 401.691 116.288C400.715 116.288 399.827 116.084 399.027 115.676C398.235 115.26 397.599 114.664 397.119 113.888C396.647 113.104 396.411 112.164 396.411 111.068C396.411 109.964 396.647 109.024 397.119 108.248C397.599 107.472 398.235 106.88 399.027 106.472C399.827 106.064 400.715 105.86 401.691 105.86C402.275 105.86 402.795 105.928 403.251 106.064C403.715 106.192 404.099 106.34 404.403 106.508C404.707 106.676 404.911 106.808 405.015 106.904L403.779 108.704C403.723 108.648 403.607 108.56 403.431 108.44C403.263 108.312 403.039 108.196 402.759 108.092C402.479 107.988 402.143 107.936 401.751 107.936C401.271 107.936 400.811 108.064 400.371 108.32C399.931 108.576 399.571 108.94 399.291 109.412C399.011 109.876 398.871 110.428 398.871 111.068C398.871 111.708 399.011 112.264 399.291 112.736C399.571 113.208 399.931 113.572 400.371 113.828C400.811 114.084 401.271 114.212 401.751 114.212ZM414.266 116V114.176C414.202 114.368 414.018 114.632 413.714 114.968C413.418 115.304 413.01 115.608 412.49 115.88C411.978 116.152 411.37 116.288 410.666 116.288C409.746 116.288 408.918 116.068 408.182 115.628C407.446 115.188 406.866 114.576 406.442 113.792C406.018 113.008 405.806 112.104 405.806 111.08C405.806 110.056 406.018 109.152 406.442 108.368C406.866 107.584 407.446 106.972 408.182 106.532C408.918 106.084 409.746 105.86 410.666 105.86C411.354 105.86 411.95 105.98 412.454 106.22C412.958 106.46 413.362 106.736 413.666 107.048C413.978 107.36 414.17 107.632 414.242 107.864V106.148H416.786V116H414.266ZM408.338 111.08C408.338 111.712 408.478 112.264 408.758 112.736C409.038 113.208 409.402 113.572 409.85 113.828C410.306 114.084 410.794 114.212 411.314 114.212C411.874 114.212 412.37 114.08 412.802 113.816C413.242 113.552 413.586 113.188 413.834 112.724C414.09 112.252 414.218 111.704 414.218 111.08C414.218 110.456 414.09 109.912 413.834 109.448C413.586 108.976 413.242 108.608 412.802 108.344C412.37 108.072 411.874 107.936 411.314 107.936C410.794 107.936 410.306 108.068 409.85 108.332C409.402 108.588 409.038 108.952 408.758 109.424C408.478 109.896 408.338 110.448 408.338 111.08ZM418.106 106.148H419.954V102.104H422.498V106.148H424.934V108.308H422.498V112.52C422.498 113.048 422.586 113.444 422.762 113.708C422.946 113.972 423.206 114.104 423.542 114.104C423.822 114.104 424.042 114.052 424.202 113.948C424.37 113.844 424.47 113.772 424.502 113.732L425.45 115.592C425.402 115.64 425.262 115.72 425.03 115.832C424.798 115.944 424.498 116.048 424.13 116.144C423.762 116.24 423.342 116.288 422.87 116.288C422.038 116.288 421.342 116.04 420.782 115.544C420.23 115.048 419.954 114.272 419.954 113.216V108.308H418.106V106.148ZM426.838 116V106.148H429.394V116H426.838ZM428.146 103.196C427.714 103.196 427.342 103.04 427.03 102.728C426.726 102.416 426.574 102.044 426.574 101.612C426.574 101.18 426.726 100.808 427.03 100.496C427.342 100.176 427.714 100.016 428.146 100.016C428.434 100.016 428.698 100.092 428.938 100.244C429.186 100.388 429.382 100.58 429.526 100.82C429.678 101.052 429.754 101.316 429.754 101.612C429.754 102.044 429.598 102.416 429.286 102.728C428.974 103.04 428.594 103.196 428.146 103.196ZM436.6 116.288C435.568 116.288 434.648 116.064 433.84 115.616C433.04 115.16 432.412 114.544 431.956 113.768C431.5 112.984 431.272 112.096 431.272 111.104C431.272 110.112 431.5 109.22 431.956 108.428C432.412 107.636 433.04 107.012 433.84 106.556C434.648 106.092 435.568 105.86 436.6 105.86C437.632 105.86 438.544 106.092 439.336 106.556C440.128 107.012 440.748 107.636 441.196 108.428C441.652 109.22 441.88 110.112 441.88 111.104C441.88 112.096 441.652 112.984 441.196 113.768C440.748 114.544 440.128 115.16 439.336 115.616C438.544 116.064 437.632 116.288 436.6 116.288ZM436.6 114.128C437.176 114.128 437.676 113.996 438.1 113.732C438.524 113.468 438.852 113.108 439.084 112.652C439.316 112.196 439.432 111.676 439.432 111.092C439.432 110.508 439.316 109.988 439.084 109.532C438.852 109.068 438.524 108.7 438.1 108.428C437.676 108.156 437.176 108.02 436.6 108.02C436.024 108.02 435.52 108.156 435.088 108.428C434.664 108.7 434.332 109.068 434.092 109.532C433.86 109.988 433.744 110.508 433.744 111.092C433.744 111.676 433.86 112.196 434.092 112.652C434.332 113.108 434.664 113.468 435.088 113.732C435.52 113.996 436.024 114.128 436.6 114.128ZM449.461 105.86C450.125 105.86 450.769 105.996 451.393 106.268C452.017 106.54 452.529 106.976 452.929 107.576C453.337 108.168 453.541 108.94 453.541 109.892V116H450.961V110.36C450.961 109.472 450.749 108.82 450.325 108.404C449.909 107.98 449.369 107.768 448.705 107.768C448.265 107.768 447.845 107.892 447.445 108.14C447.045 108.388 446.717 108.724 446.461 109.148C446.213 109.572 446.089 110.06 446.089 110.612V116H443.521V106.148H446.089V107.804C446.161 107.532 446.353 107.248 446.665 106.952C446.985 106.648 447.389 106.392 447.877 106.184C448.365 105.968 448.893 105.86 449.461 105.86Z" fill="black"/>
<g filter="url(#filter3_bdi_1_750)">
<circle cx="592" cy="40" r="40" fill="#38B6FF"/>
</g>
<path d="M578.609 40.085C578.609 41.345 578.869 42.485 579.389 43.505C579.919 44.525 580.644 45.335 581.564 45.935C582.484 46.525 583.549 46.82 584.759 46.82C585.969 46.82 587.034 46.525 587.954 45.935C588.884 45.335 589.609 44.525 590.129 43.505C590.649 42.485 590.909 41.345 590.909 40.085C590.909 38.825 590.649 37.69 590.129 36.68C589.609 35.66 588.884 34.85 587.954 34.25C587.034 33.65 585.969 33.35 584.759 33.35C583.549 33.35 582.484 33.65 581.564 34.25C580.644 34.85 579.919 35.66 579.389 36.68C578.869 37.69 578.609 38.825 578.609 40.085ZM574.709 40.085C574.709 38.645 574.959 37.305 575.459 36.065C575.969 34.815 576.679 33.725 577.589 32.795C578.499 31.865 579.564 31.14 580.784 30.62C582.014 30.1 583.339 29.84 584.759 29.84C586.199 29.84 587.529 30.1 588.749 30.62C589.969 31.14 591.029 31.865 591.929 32.795C592.839 33.725 593.544 34.815 594.044 36.065C594.544 37.305 594.794 38.645 594.794 40.085C594.794 41.535 594.549 42.885 594.059 44.135C593.569 45.375 592.874 46.465 591.974 47.405C591.074 48.335 590.014 49.06 588.794 49.58C587.574 50.1 586.229 50.36 584.759 50.36C583.269 50.36 581.909 50.1 580.679 49.58C579.459 49.06 578.399 48.335 577.499 47.405C576.609 46.465 575.919 45.375 575.429 44.135C574.949 42.885 574.709 41.535 574.709 40.085ZM607.721 30.2V42.53H610.016V45.83H607.721V50H603.986V45.83H595.766V42.83L603.491 30.2H607.721ZM603.986 42.53V35.225H603.956L599.576 42.53H603.986Z" fill="white"/>
<path d="M572.964 116H570.048L564.3 100.16H567.144L571.512 112.868L575.892 100.16H578.736L572.964 116ZM580.407 116V106.148H582.963V116H580.407ZM581.715 103.196C581.283 103.196 580.911 103.04 580.599 102.728C580.295 102.416 580.143 102.044 580.143 101.612C580.143 101.18 580.295 100.808 580.599 100.496C580.911 100.176 581.283 100.016 581.715 100.016C582.003 100.016 582.267 100.092 582.507 100.244C582.755 100.388 582.951 100.58 583.095 100.82C583.247 101.052 583.323 101.316 583.323 101.612C583.323 102.044 583.167 102.416 582.855 102.728C582.543 103.04 582.163 103.196 581.715 103.196ZM589.785 116.288C588.857 116.288 588.037 116.068 587.325 115.628C586.613 115.188 586.053 114.576 585.645 113.792C585.245 113.008 585.045 112.104 585.045 111.08C585.045 110.056 585.245 109.152 585.645 108.368C586.053 107.584 586.613 106.972 587.325 106.532C588.037 106.084 588.857 105.86 589.785 105.86C590.473 105.86 591.085 105.98 591.621 106.22C592.157 106.452 592.585 106.724 592.905 107.036C593.225 107.348 593.413 107.624 593.469 107.864V99.488H596.037V116H593.505V114.176C593.393 114.456 593.165 114.76 592.821 115.088C592.477 115.416 592.041 115.7 591.513 115.94C590.993 116.172 590.417 116.288 589.785 116.288ZM590.445 114.212C591.005 114.212 591.513 114.08 591.969 113.816C592.425 113.552 592.789 113.188 593.061 112.724C593.333 112.252 593.469 111.704 593.469 111.08C593.469 110.456 593.333 109.912 593.061 109.448C592.789 108.976 592.425 108.608 591.969 108.344C591.513 108.072 591.005 107.936 590.445 107.936C589.933 107.936 589.457 108.068 589.017 108.332C588.585 108.588 588.237 108.952 587.973 109.424C587.709 109.896 587.577 110.448 587.577 111.08C587.577 111.712 587.709 112.264 587.973 112.736C588.237 113.208 588.585 113.572 589.017 113.828C589.457 114.084 589.933 114.212 590.445 114.212ZM599.581 111.68C599.597 112.2 599.721 112.668 599.953 113.084C600.185 113.5 600.525 113.828 600.973 114.068C601.429 114.3 601.985 114.416 602.641 114.416C603.209 114.416 603.697 114.34 604.105 114.188C604.521 114.028 604.865 113.84 605.137 113.624C605.409 113.4 605.609 113.192 605.737 113L606.877 114.548C606.629 114.884 606.317 115.184 605.941 115.448C605.565 115.712 605.097 115.916 604.537 116.06C603.985 116.212 603.301 116.288 602.485 116.288C601.413 116.288 600.481 116.068 599.689 115.628C598.897 115.188 598.281 114.568 597.841 113.768C597.409 112.968 597.193 112.032 597.193 110.96C597.193 110 597.393 109.136 597.793 108.368C598.193 107.592 598.773 106.98 599.533 106.532C600.301 106.084 601.221 105.86 602.293 105.86C603.293 105.86 604.161 106.06 604.897 106.46C605.633 106.86 606.201 107.436 606.601 108.188C607.009 108.932 607.213 109.832 607.213 110.888C607.213 110.952 607.209 111.084 607.201 111.284C607.201 111.484 607.193 111.616 607.177 111.68H599.581ZM604.813 109.808C604.805 109.552 604.717 109.26 604.549 108.932C604.389 108.604 604.129 108.32 603.769 108.08C603.409 107.832 602.929 107.708 602.329 107.708C601.713 107.708 601.213 107.828 600.829 108.068C600.445 108.3 600.161 108.58 599.977 108.908C599.793 109.228 599.685 109.528 599.653 109.808H604.813ZM613.608 116.288C612.576 116.288 611.656 116.064 610.848 115.616C610.048 115.16 609.42 114.544 608.964 113.768C608.508 112.984 608.28 112.096 608.28 111.104C608.28 110.112 608.508 109.22 608.964 108.428C609.42 107.636 610.048 107.012 610.848 106.556C611.656 106.092 612.576 105.86 613.608 105.86C614.64 105.86 615.552 106.092 616.344 106.556C617.136 107.012 617.756 107.636 618.204 108.428C618.66 109.22 618.888 110.112 618.888 111.104C618.888 112.096 618.66 112.984 618.204 113.768C617.756 114.544 617.136 115.16 616.344 115.616C615.552 116.064 614.64 116.288 613.608 116.288ZM613.608 114.128C614.184 114.128 614.684 113.996 615.108 113.732C615.532 113.468 615.86 113.108 616.092 112.652C616.324 112.196 616.44 111.676 616.44 111.092C616.44 110.508 616.324 109.988 616.092 109.532C615.86 109.068 615.532 108.7 615.108 108.428C614.684 108.156 614.184 108.02 613.608 108.02C613.032 108.02 612.528 108.156 612.096 108.428C611.672 108.7 611.34 109.068 611.1 109.532C610.868 109.988 610.752 110.508 610.752 111.092C610.752 111.676 610.868 112.196 611.1 112.652C611.34 113.108 611.672 113.468 612.096 113.732C612.528 113.996 613.032 114.128 613.608 114.128Z" fill="black"/>
<g filter="url(#filter4_bdi_1_750)">
<circle cx="777" cy="40" r="40" fill="#38B6FF"/>
</g>
<path d="M761.22 40.115C761.22 38.375 761.435 36.865 761.865 35.585C762.295 34.295 762.88 33.225 763.62 32.375C764.36 31.525 765.195 30.89 766.125 30.47C767.065 30.05 768.04 29.84 769.05 29.84C770.07 29.84 771.045 30.05 771.975 30.47C772.915 30.89 773.75 31.525 774.48 32.375C775.21 33.225 775.785 34.295 776.205 35.585C776.635 36.865 776.85 38.375 776.85 40.115C776.85 41.935 776.635 43.495 776.205 44.795C775.785 46.085 775.21 47.14 774.48 47.96C773.75 48.78 772.915 49.385 771.975 49.775C771.045 50.165 770.07 50.36 769.05 50.36C768.04 50.36 767.065 50.165 766.125 49.775C765.195 49.385 764.36 48.78 763.62 47.96C762.88 47.14 762.295 46.085 761.865 44.795C761.435 43.495 761.22 41.935 761.22 40.115ZM765 40.115C765 41.675 765.17 42.97 765.51 44C765.86 45.02 766.34 45.78 766.95 46.28C767.56 46.78 768.26 47.03 769.05 47.03C769.84 47.03 770.535 46.78 771.135 46.28C771.745 45.78 772.22 45.015 772.56 43.985C772.91 42.955 773.085 41.665 773.085 40.115C773.085 38.615 772.91 37.35 772.56 36.32C772.22 35.29 771.745 34.51 771.135 33.98C770.535 33.44 769.84 33.17 769.05 33.17C768.26 33.17 767.56 33.44 766.95 33.98C766.34 34.51 765.86 35.29 765.51 36.32C765.17 37.35 765 38.615 765 40.115ZM781.571 44.885C781.651 45.125 781.771 45.38 781.931 45.65C782.101 45.91 782.321 46.16 782.591 46.4C782.861 46.63 783.191 46.82 783.581 46.97C783.971 47.12 784.436 47.195 784.976 47.195C786.056 47.195 786.896 46.85 787.496 46.16C788.106 45.46 788.406 44.55 788.396 43.43C788.386 42.36 788.101 41.53 787.541 40.94C786.981 40.35 786.226 40.055 785.276 40.055C784.676 40.055 784.151 40.165 783.701 40.385C783.261 40.595 782.901 40.845 782.621 41.135C782.351 41.425 782.161 41.7 782.051 41.96L778.901 40.835L780.626 30.2H791.276V33.485H783.806L783.071 38.165C783.121 38.085 783.281 37.955 783.551 37.775C783.831 37.585 784.206 37.415 784.676 37.265C785.156 37.105 785.716 37.025 786.356 37.025C787.336 37.025 788.266 37.245 789.146 37.685C790.036 38.115 790.761 38.79 791.321 39.71C791.881 40.62 792.166 41.79 792.176 43.22C792.176 44.65 791.881 45.905 791.291 46.985C790.701 48.055 789.876 48.885 788.816 49.475C787.756 50.065 786.521 50.36 785.111 50.36C784.061 50.36 783.141 50.23 782.351 49.97C781.571 49.71 780.911 49.375 780.371 48.965C779.831 48.555 779.396 48.12 779.066 47.66C778.736 47.2 778.496 46.765 778.346 46.355L781.571 44.885Z" fill="white"/>
<path d="M729.205 100.16H731.785L737.761 116H735.073L733.765 112.376H727.237L725.917 116H723.217L729.205 100.16ZM728.053 110.132H732.949L730.513 103.232H730.477L728.053 110.132ZM737.177 106.148H739.925L742.889 113.648L745.853 106.148H748.589L744.401 116H741.389L737.177 106.148ZM757.762 116V114.176C757.698 114.368 757.514 114.632 757.21 114.968C756.914 115.304 756.506 115.608 755.986 115.88C755.474 116.152 754.866 116.288 754.162 116.288C753.242 116.288 752.414 116.068 751.678 115.628C750.942 115.188 750.362 114.576 749.938 113.792C749.514 113.008 749.302 112.104 749.302 111.08C749.302 110.056 749.514 109.152 749.938 108.368C750.362 107.584 750.942 106.972 751.678 106.532C752.414 106.084 753.242 105.86 754.162 105.86C754.85 105.86 755.446 105.98 755.95 106.22C756.454 106.46 756.858 106.736 757.162 107.048C757.474 107.36 757.666 107.632 757.738 107.864V106.148H760.282V116H757.762ZM751.834 111.08C751.834 111.712 751.974 112.264 752.254 112.736C752.534 113.208 752.898 113.572 753.346 113.828C753.802 114.084 754.29 114.212 754.81 114.212C755.37 114.212 755.866 114.08 756.298 113.816C756.738 113.552 757.082 113.188 757.33 112.724C757.586 112.252 757.714 111.704 757.714 111.08C757.714 110.456 757.586 109.912 757.33 109.448C757.082 108.976 756.738 108.608 756.298 108.344C755.866 108.072 755.37 107.936 754.81 107.936C754.29 107.936 753.802 108.068 753.346 108.332C752.898 108.588 752.534 108.952 752.254 109.424C751.974 109.896 751.834 110.448 751.834 111.08ZM762.635 116V106.148H765.191V116H762.635ZM763.943 103.196C763.511 103.196 763.139 103.04 762.827 102.728C762.523 102.416 762.371 102.044 762.371 101.612C762.371 101.18 762.523 100.808 762.827 100.496C763.139 100.176 763.511 100.016 763.943 100.016C764.231 100.016 764.495 100.092 764.735 100.244C764.983 100.388 765.179 100.58 765.323 100.82C765.475 101.052 765.551 101.316 765.551 101.612C765.551 102.044 765.395 102.416 765.083 102.728C764.771 103.04 764.391 103.196 763.943 103.196ZM770.321 116H767.741V99.488H770.321V116ZM780.463 116V114.176C780.399 114.368 780.215 114.632 779.911 114.968C779.615 115.304 779.207 115.608 778.687 115.88C778.175 116.152 777.567 116.288 776.863 116.288C775.943 116.288 775.115 116.068 774.379 115.628C773.643 115.188 773.063 114.576 772.639 113.792C772.215 113.008 772.003 112.104 772.003 111.08C772.003 110.056 772.215 109.152 772.639 108.368C773.063 107.584 773.643 106.972 774.379 106.532C775.115 106.084 775.943 105.86 776.863 105.86C777.551 105.86 778.147 105.98 778.651 106.22C779.155 106.46 779.559 106.736 779.863 107.048C780.175 107.36 780.367 107.632 780.439 107.864V106.148H782.983V116H780.463ZM774.535 111.08C774.535 111.712 774.675 112.264 774.955 112.736C775.235 113.208 775.599 113.572 776.047 113.828C776.503 114.084 776.991 114.212 777.511 114.212C778.071 114.212 778.567 114.08 778.999 113.816C779.439 113.552 779.783 113.188 780.031 112.724C780.287 112.252 780.415 111.704 780.415 111.08C780.415 110.456 780.287 109.912 780.031 109.448C779.783 108.976 779.439 108.608 778.999 108.344C778.567 108.072 778.071 107.936 777.511 107.936C776.991 107.936 776.503 108.068 776.047 108.332C775.599 108.588 775.235 108.952 774.955 109.424C774.675 109.896 774.535 110.448 774.535 111.08ZM785.095 116V99.488H787.663V107.864C787.719 107.624 787.907 107.348 788.227 107.036C788.547 106.724 788.975 106.452 789.511 106.22C790.047 105.98 790.659 105.86 791.347 105.86C792.275 105.86 793.095 106.084 793.807 106.532C794.519 106.972 795.075 107.584 795.475 108.368C795.883 109.152 796.087 110.056 796.087 111.08C796.087 112.104 795.883 113.008 795.475 113.792C795.075 114.576 794.519 115.188 793.807 115.628C793.095 116.068 792.275 116.288 791.347 116.288C790.715 116.288 790.135 116.172 789.607 115.94C789.087 115.7 788.655 115.416 788.311 115.088C787.967 114.76 787.739 114.456 787.627 114.176V116H785.095ZM793.555 111.08C793.555 110.448 793.423 109.896 793.159 109.424C792.895 108.952 792.547 108.588 792.115 108.332C791.683 108.068 791.207 107.936 790.687 107.936C790.127 107.936 789.619 108.072 789.163 108.344C788.707 108.608 788.343 108.976 788.071 109.448C787.799 109.912 787.663 110.456 787.663 111.08C787.663 111.704 787.799 112.252 788.071 112.724C788.343 113.188 788.707 113.552 789.163 113.816C789.619 114.08 790.127 114.212 790.687 114.212C791.207 114.212 791.683 114.084 792.115 113.828C792.547 113.572 792.895 113.208 793.159 112.736C793.423 112.264 793.555 111.712 793.555 111.08ZM797.676 116V106.148H800.232V116H797.676ZM798.984 103.196C798.552 103.196 798.18 103.04 797.868 102.728C797.564 102.416 797.412 102.044 797.412 101.612C797.412 101.18 797.564 100.808 797.868 100.496C798.18 100.176 798.552 100.016 798.984 100.016C799.272 100.016 799.536 100.092 799.776 100.244C800.024 100.388 800.22 100.58 800.364 100.82C800.516 101.052 800.592 101.316 800.592 101.612C800.592 102.044 800.436 102.416 800.124 102.728C799.812 103.04 799.432 103.196 798.984 103.196ZM805.362 116H802.782V99.488H805.362V116ZM807.872 116V106.148H810.428V116H807.872ZM809.18 103.196C808.748 103.196 808.376 103.04 808.064 102.728C807.76 102.416 807.608 102.044 807.608 101.612C807.608 101.18 807.76 100.808 808.064 100.496C808.376 100.176 808.748 100.016 809.18 100.016C809.468 100.016 809.732 100.092 809.972 100.244C810.22 100.388 810.416 100.58 810.56 100.82C810.712 101.052 810.788 101.316 810.788 101.612C810.788 102.044 810.632 102.416 810.32 102.728C810.008 103.04 809.628 103.196 809.18 103.196ZM812.102 106.148H813.95V102.104H816.494V106.148H818.93V108.308H816.494V112.52C816.494 113.048 816.582 113.444 816.758 113.708C816.942 113.972 817.202 114.104 817.538 114.104C817.818 114.104 818.038 114.052 818.198 113.948C818.366 113.844 818.466 113.772 818.498 113.732L819.446 115.592C819.398 115.64 819.258 115.72 819.026 115.832C818.794 115.944 818.494 116.048 818.126 116.144C817.758 116.24 817.338 116.288 816.866 116.288C816.034 116.288 815.338 116.04 814.778 115.544C814.226 115.048 813.95 114.272 813.95 113.216V108.308H812.102V106.148ZM824.998 113.708L828.118 106.148H830.674L823.978 120.992H821.386L823.642 116L819.562 106.148H822.154L824.998 113.708Z" fill="black"/>
<g filter="url(#filter5_bdi_1_750)">
<circle cx="962" cy="40" r="40" fill="#38B6FF"/>
</g>
<path d="M945.883 40.115C945.883 38.375 946.098 36.865 946.528 35.585C946.958 34.295 947.543 33.225 948.283 32.375C949.023 31.525 949.858 30.89 950.788 30.47C951.728 30.05 952.703 29.84 953.713 29.84C954.733 29.84 955.708 30.05 956.638 30.47C957.578 30.89 958.413 31.525 959.143 32.375C959.873 33.225 960.448 34.295 960.868 35.585C961.298 36.865 961.513 38.375 961.513 40.115C961.513 41.935 961.298 43.495 960.868 44.795C960.448 46.085 959.873 47.14 959.143 47.96C958.413 48.78 957.578 49.385 956.638 49.775C955.708 50.165 954.733 50.36 953.713 50.36C952.703 50.36 951.728 50.165 950.788 49.775C949.858 49.385 949.023 48.78 948.283 47.96C947.543 47.14 946.958 46.085 946.528 44.795C946.098 43.495 945.883 41.935 945.883 40.115ZM949.663 40.115C949.663 41.675 949.833 42.97 950.173 44C950.523 45.02 951.003 45.78 951.613 46.28C952.223 46.78 952.923 47.03 953.713 47.03C954.503 47.03 955.198 46.78 955.798 46.28C956.408 45.78 956.883 45.015 957.223 43.985C957.573 42.955 957.748 41.665 957.748 40.115C957.748 38.615 957.573 37.35 957.223 36.32C956.883 35.29 956.408 34.51 955.798 33.98C955.198 33.44 954.503 33.17 953.713 33.17C952.923 33.17 952.223 33.44 951.613 33.98C951.003 34.51 950.523 35.29 950.173 36.32C949.833 37.35 949.663 38.615 949.663 40.115ZM971.199 36.92C972.269 36.92 973.279 37.19 974.229 37.73C975.189 38.27 975.969 39.035 976.569 40.025C977.179 41.005 977.484 42.165 977.484 43.505C977.484 44.835 977.159 46.015 976.509 47.045C975.859 48.075 974.989 48.885 973.899 49.475C972.809 50.065 971.604 50.36 970.284 50.36C968.944 50.36 967.729 50.075 966.639 49.505C965.549 48.935 964.679 48.125 964.029 47.075C963.389 46.015 963.069 44.765 963.069 43.325C963.069 41.755 963.329 40.435 963.849 39.365C964.369 38.285 964.969 37.33 965.649 36.5L970.749 30.2H975.159L968.889 37.64C969.049 37.46 969.324 37.295 969.714 37.145C970.104 36.995 970.599 36.92 971.199 36.92ZM970.284 47.27C970.964 47.27 971.579 47.105 972.129 46.775C972.679 46.445 973.119 46.005 973.449 45.455C973.779 44.895 973.944 44.275 973.944 43.595C973.944 42.925 973.779 42.315 973.449 41.765C973.119 41.215 972.679 40.775 972.129 40.445C971.579 40.115 970.964 39.95 970.284 39.95C969.614 39.95 968.999 40.115 968.439 40.445C967.889 40.775 967.449 41.215 967.119 41.765C966.789 42.315 966.624 42.925 966.624 43.595C966.624 44.275 966.789 44.895 967.119 45.455C967.449 46.005 967.889 46.445 968.439 46.775C968.999 47.105 969.614 47.27 970.284 47.27Z" fill="white"/>
<path d="M882.824 99.872C883.752 99.872 884.556 99.98 885.236 100.196C885.924 100.404 886.468 100.628 886.868 100.868C887.268 101.1 887.508 101.252 887.588 101.324L886.328 103.376C886.208 103.272 885.992 103.128 885.68 102.944C885.376 102.752 885 102.58 884.552 102.428C884.112 102.276 883.62 102.2 883.076 102.2C882.26 102.2 881.612 102.36 881.132 102.68C880.652 102.992 880.412 103.448 880.412 104.048C880.412 104.448 880.54 104.8 880.796 105.104C881.052 105.408 881.416 105.692 881.888 105.956C882.368 106.22 882.94 106.488 883.604 106.76C884.164 106.992 884.708 107.256 885.236 107.552C885.772 107.848 886.252 108.196 886.676 108.596C887.1 108.996 887.436 109.46 887.684 109.988C887.94 110.516 888.068 111.124 888.068 111.812C888.068 112.532 887.92 113.172 887.624 113.732C887.328 114.284 886.92 114.752 886.4 115.136C885.88 115.512 885.28 115.8 884.6 116C883.928 116.192 883.208 116.288 882.44 116.288C881.432 116.288 880.524 116.168 879.716 115.928C878.916 115.68 878.268 115.424 877.772 115.16C877.276 114.888 876.988 114.712 876.908 114.632L878.24 112.484C878.336 112.564 878.512 112.684 878.768 112.844C879.032 112.996 879.356 113.16 879.74 113.336C880.124 113.504 880.548 113.648 881.012 113.768C881.484 113.88 881.972 113.936 882.476 113.936C883.444 113.936 884.176 113.728 884.672 113.312C885.168 112.888 885.416 112.344 885.416 111.68C885.416 111.176 885.256 110.74 884.936 110.372C884.624 109.996 884.192 109.656 883.64 109.352C883.096 109.048 882.476 108.748 881.78 108.452C881.068 108.14 880.408 107.788 879.8 107.396C879.2 107.004 878.716 106.528 878.348 105.968C877.98 105.4 877.796 104.712 877.796 103.904C877.796 103.096 878.024 102.392 878.48 101.792C878.944 101.184 879.556 100.712 880.316 100.376C881.076 100.04 881.912 99.872 882.824 99.872ZM892.438 110.984C892.438 111.944 892.634 112.708 893.026 113.276C893.426 113.844 894.054 114.128 894.91 114.128C895.774 114.128 896.402 113.844 896.794 113.276C897.186 112.708 897.382 111.944 897.382 110.984V106.148H899.926V111.308C899.926 112.3 899.73 113.172 899.338 113.924C898.946 114.668 898.378 115.248 897.634 115.664C896.89 116.08 895.982 116.288 894.91 116.288C893.846 116.288 892.942 116.08 892.198 115.664C891.454 115.248 890.886 114.668 890.494 113.924C890.102 113.172 889.906 112.3 889.906 111.308V106.148H892.438V110.984ZM902.061 116V99.488H904.629V107.864C904.685 107.624 904.873 107.348 905.193 107.036C905.513 106.724 905.941 106.452 906.477 106.22C907.013 105.98 907.625 105.86 908.313 105.86C909.241 105.86 910.061 106.084 910.773 106.532C911.485 106.972 912.041 107.584 912.441 108.368C912.849 109.152 913.053 110.056 913.053 111.08C913.053 112.104 912.849 113.008 912.441 113.792C912.041 114.576 911.485 115.188 910.773 115.628C910.061 116.068 909.241 116.288 908.313 116.288C907.681 116.288 907.101 116.172 906.573 115.94C906.053 115.7 905.621 115.416 905.277 115.088C904.933 114.76 904.705 114.456 904.593 114.176V116H902.061ZM910.521 111.08C910.521 110.448 910.389 109.896 910.125 109.424C909.861 108.952 909.513 108.588 909.081 108.332C908.649 108.068 908.173 107.936 907.653 107.936C907.093 107.936 906.585 108.072 906.129 108.344C905.673 108.608 905.309 108.976 905.037 109.448C904.765 109.912 904.629 110.456 904.629 111.08C904.629 111.704 904.765 112.252 905.037 112.724C905.309 113.188 905.673 113.552 906.129 113.816C906.585 114.08 907.093 114.212 907.653 114.212C908.173 114.212 908.649 114.084 909.081 113.828C909.513 113.572 909.861 113.208 910.125 112.736C910.389 112.264 910.521 111.712 910.521 111.08ZM914.185 121.28C913.593 121.28 913.101 121.216 912.709 121.088C912.317 120.968 912.025 120.844 911.833 120.716L912.721 118.784C912.833 118.872 912.961 118.944 913.105 119C913.241 119.056 913.433 119.084 913.681 119.084C913.993 119.084 914.237 118.988 914.413 118.796C914.589 118.612 914.713 118.348 914.785 118.004C914.857 117.668 914.893 117.264 914.893 116.792V106.148H917.461V117.32C917.461 118.096 917.353 118.78 917.137 119.372C916.921 119.972 916.573 120.44 916.093 120.776C915.613 121.112 914.977 121.28 914.185 121.28ZM916.225 103.196C915.785 103.196 915.409 103.04 915.097 102.728C914.793 102.416 914.641 102.044 914.641 101.612C914.641 101.324 914.713 101.06 914.857 100.82C915.001 100.58 915.193 100.388 915.433 100.244C915.673 100.092 915.937 100.016 916.225 100.016C916.521 100.016 916.789 100.092 917.029 100.244C917.269 100.388 917.457 100.58 917.593 100.82C917.737 101.06 917.809 101.324 917.809 101.612C917.809 102.044 917.653 102.416 917.341 102.728C917.037 103.04 916.665 103.196 916.225 103.196ZM921.686 111.68C921.702 112.2 921.826 112.668 922.058 113.084C922.29 113.5 922.63 113.828 923.078 114.068C923.534 114.3 924.09 114.416 924.746 114.416C925.314 114.416 925.802 114.34 926.21 114.188C926.626 114.028 926.97 113.84 927.242 113.624C927.514 113.4 927.714 113.192 927.842 113L928.982 114.548C928.734 114.884 928.422 115.184 928.046 115.448C927.67 115.712 927.202 115.916 926.642 116.06C926.09 116.212 925.406 116.288 924.59 116.288C923.518 116.288 922.586 116.068 921.794 115.628C921.002 115.188 920.386 114.568 919.946 113.768C919.514 112.968 919.298 112.032 919.298 110.96C919.298 110 919.498 109.136 919.898 108.368C920.298 107.592 920.878 106.98 921.638 106.532C922.406 106.084 923.326 105.86 924.398 105.86C925.398 105.86 926.266 106.06 927.002 106.46C927.738 106.86 928.306 107.436 928.706 108.188C929.114 108.932 929.318 109.832 929.318 110.888C929.318 110.952 929.314 111.084 929.306 111.284C929.306 111.484 929.298 111.616 929.282 111.68H921.686ZM926.918 109.808C926.91 109.552 926.822 109.26 926.654 108.932C926.494 108.604 926.234 108.32 925.874 108.08C925.514 107.832 925.034 107.708 924.434 107.708C923.818 107.708 923.318 107.828 922.934 108.068C922.55 108.3 922.266 108.58 922.082 108.908C921.898 109.228 921.79 109.528 921.758 109.808H926.918ZM935.88 114.212C936.448 114.212 936.908 114.12 937.26 113.936C937.62 113.744 937.852 113.604 937.956 113.516L939.168 115.316C939.072 115.396 938.872 115.516 938.568 115.676C938.264 115.828 937.876 115.968 937.404 116.096C936.94 116.224 936.412 116.288 935.82 116.288C934.844 116.288 933.956 116.084 933.156 115.676C932.364 115.26 931.728 114.664 931.248 113.888C930.776 113.104 930.54 112.164 930.54 111.068C930.54 109.964 930.776 109.024 931.248 108.248C931.728 107.472 932.364 106.88 933.156 106.472C933.956 106.064 934.844 105.86 935.82 105.86C936.404 105.86 936.924 105.928 937.38 106.064C937.844 106.192 938.228 106.34 938.532 106.508C938.836 106.676 939.04 106.808 939.144 106.904L937.908 108.704C937.852 108.648 937.736 108.56 937.56 108.44C937.392 108.312 937.168 108.196 936.888 108.092C936.608 107.988 936.272 107.936 935.88 107.936C935.4 107.936 934.94 108.064 934.5 108.32C934.06 108.576 933.7 108.94 933.42 109.412C933.14 109.876 933 110.428 933 111.068C933 111.708 933.14 112.264 933.42 112.736C933.7 113.208 934.06 113.572 934.5 113.828C934.94 114.084 935.4 114.212 935.88 114.212ZM939.638 106.148H941.486V102.104H944.03V106.148H946.466V108.308H944.03V112.52C944.03 113.048 944.118 113.444 944.294 113.708C944.478 113.972 944.738 114.104 945.074 114.104C945.354 114.104 945.574 114.052 945.734 113.948C945.902 113.844 946.002 113.772 946.034 113.732L946.982 115.592C946.934 115.64 946.794 115.72 946.562 115.832C946.33 115.944 946.03 116.048 945.662 116.144C945.294 116.24 944.874 116.288 944.402 116.288C943.57 116.288 942.874 116.04 942.314 115.544C941.762 115.048 941.486 114.272 941.486 113.216V108.308H939.638V106.148ZM952.09 105.86C952.642 105.86 953.154 105.912 953.626 106.016C954.098 106.12 954.502 106.244 954.838 106.388C955.174 106.532 955.406 106.652 955.534 106.748L954.598 108.332C954.438 108.196 954.15 108.04 953.734 107.864C953.326 107.688 952.866 107.6 952.354 107.6C951.842 107.6 951.41 107.692 951.058 107.876C950.706 108.06 950.53 108.336 950.53 108.704C950.53 109.064 950.714 109.352 951.082 109.568C951.458 109.784 951.966 109.964 952.606 110.108C953.134 110.228 953.638 110.396 954.118 110.612C954.598 110.82 954.99 111.12 955.294 111.512C955.606 111.896 955.762 112.412 955.762 113.06C955.762 113.676 955.63 114.192 955.366 114.608C955.11 115.016 954.766 115.344 954.334 115.592C953.902 115.84 953.422 116.016 952.894 116.12C952.374 116.232 951.85 116.288 951.322 116.288C950.674 116.288 950.094 116.224 949.582 116.096C949.078 115.968 948.658 115.82 948.322 115.652C947.986 115.476 947.746 115.328 947.602 115.208L948.538 113.432C948.746 113.632 949.086 113.844 949.558 114.068C950.03 114.284 950.558 114.392 951.142 114.392C951.766 114.392 952.266 114.272 952.642 114.032C953.018 113.792 953.206 113.472 953.206 113.072C953.206 112.776 953.114 112.536 952.93 112.352C952.754 112.168 952.51 112.02 952.198 111.908C951.886 111.796 951.538 111.696 951.154 111.608C950.794 111.52 950.43 111.408 950.062 111.272C949.702 111.128 949.37 110.944 949.066 110.72C948.762 110.488 948.518 110.2 948.334 109.856C948.15 109.512 948.058 109.108 948.058 108.644C948.058 108.052 948.246 107.548 948.622 107.132C948.998 106.716 949.494 106.4 950.11 106.184C950.726 105.968 951.386 105.86 952.09 105.86ZM962.626 111.944C962.626 111.312 962.742 110.756 962.974 110.276C963.214 109.788 963.522 109.368 963.898 109.016C964.274 108.656 964.666 108.356 965.074 108.116C965.49 107.868 965.874 107.676 966.226 107.54C966.578 107.396 966.85 107.296 967.042 107.24C966.89 107.136 966.702 106.968 966.478 106.736C966.254 106.504 966.034 106.224 965.818 105.896C965.602 105.56 965.422 105.192 965.278 104.792C965.134 104.392 965.062 103.976 965.062 103.544C965.062 102.872 965.246 102.26 965.614 101.708C965.982 101.156 966.502 100.712 967.174 100.376C967.854 100.04 968.662 99.872 969.598 99.872C970.518 99.872 971.294 100.036 971.926 100.364C972.566 100.684 973.05 101.124 973.378 101.684C973.706 102.236 973.87 102.868 973.87 103.58C973.87 104.188 973.734 104.728 973.462 105.2C973.198 105.664 972.87 106.068 972.478 106.412C972.086 106.748 971.698 107.028 971.314 107.252C970.93 107.476 970.622 107.644 970.39 107.756L973.438 111.056C973.63 110.872 973.898 110.576 974.242 110.168C974.586 109.752 974.934 109.268 975.286 108.716L976.978 110.204C976.866 110.396 976.702 110.644 976.486 110.948C976.27 111.244 976.034 111.544 975.778 111.848C975.522 112.144 975.282 112.392 975.058 112.592L978.286 116H975.082L973.186 113.972C972.77 114.348 972.29 114.716 971.746 115.076C971.202 115.428 970.582 115.72 969.886 115.952C969.198 116.176 968.426 116.288 967.57 116.288C966.658 116.288 965.826 116.116 965.074 115.772C964.322 115.42 963.726 114.92 963.286 114.272C962.846 113.624 962.626 112.848 962.626 111.944ZM968.314 108.776C968.194 108.816 968.018 108.888 967.786 108.992C967.562 109.088 967.314 109.216 967.042 109.376C966.77 109.528 966.514 109.72 966.274 109.952C966.034 110.176 965.834 110.436 965.674 110.732C965.514 111.028 965.434 111.364 965.434 111.74C965.434 112.228 965.55 112.636 965.782 112.964C966.014 113.292 966.322 113.536 966.706 113.696C967.098 113.856 967.522 113.936 967.978 113.936C968.474 113.936 968.954 113.848 969.418 113.672C969.89 113.496 970.314 113.284 970.69 113.036C971.074 112.78 971.378 112.532 971.602 112.292L968.314 108.776ZM969.562 101.852C969.13 101.852 968.762 101.936 968.458 102.104C968.154 102.272 967.922 102.488 967.762 102.752C967.602 103.016 967.522 103.288 967.522 103.568C967.522 103.864 967.594 104.168 967.738 104.48C967.89 104.792 968.062 105.084 968.254 105.356C968.454 105.628 968.634 105.856 968.794 106.04C968.962 106.216 969.058 106.316 969.082 106.34C969.226 106.3 969.434 106.212 969.706 106.076C969.978 105.94 970.254 105.76 970.534 105.536C970.822 105.304 971.066 105.028 971.266 104.708C971.474 104.38 971.578 104 971.578 103.568C971.578 103.08 971.394 102.672 971.026 102.344C970.658 102.016 970.17 101.852 969.562 101.852ZM984.733 100.16H989.605C990.597 100.16 991.493 100.328 992.293 100.664C993.101 101 993.745 101.516 994.225 102.212C994.705 102.908 994.945 103.804 994.945 104.9C994.945 105.996 994.705 106.912 994.225 107.648C993.745 108.376 993.101 108.924 992.293 109.292C991.493 109.66 990.597 109.844 989.605 109.844H987.253V116H984.733V100.16ZM987.253 107.78H988.909C989.525 107.78 990.085 107.692 990.589 107.516C991.101 107.332 991.505 107.032 991.801 106.616C992.105 106.2 992.257 105.648 992.257 104.96C992.257 104.264 992.105 103.72 991.801 103.328C991.505 102.928 991.101 102.644 990.589 102.476C990.085 102.308 989.525 102.224 988.909 102.224H987.253V107.78ZM998.792 116H996.236V106.148H998.792V107.792H998.732C998.788 107.592 998.94 107.344 999.188 107.048C999.444 106.744 999.796 106.472 1000.24 106.232C1000.69 105.984 1001.23 105.86 1001.86 105.86C1002.32 105.86 1002.73 105.924 1003.09 106.052C1003.45 106.18 1003.7 106.308 1003.86 106.436L1002.82 108.548C1002.72 108.42 1002.52 108.296 1002.24 108.176C1001.96 108.048 1001.61 107.984 1001.19 107.984C1000.67 107.984 1000.23 108.136 999.872 108.44C999.52 108.744 999.252 109.108 999.068 109.532C998.884 109.956 998.792 110.352 998.792 110.72V116ZM1004.81 116V106.148H1007.37V116H1004.81ZM1006.12 103.196C1005.69 103.196 1005.31 103.04 1005 102.728C1004.7 102.416 1004.55 102.044 1004.55 101.612C1004.55 101.18 1004.7 100.808 1005 100.496C1005.31 100.176 1005.69 100.016 1006.12 100.016C1006.41 100.016 1006.67 100.092 1006.91 100.244C1007.16 100.388 1007.35 100.58 1007.5 100.82C1007.65 101.052 1007.73 101.316 1007.73 101.612C1007.73 102.044 1007.57 102.416 1007.26 102.728C1006.95 103.04 1006.57 103.196 1006.12 103.196ZM1014.74 114.212C1015.31 114.212 1015.77 114.12 1016.12 113.936C1016.48 113.744 1016.71 113.604 1016.82 113.516L1018.03 115.316C1017.93 115.396 1017.73 115.516 1017.43 115.676C1017.12 115.828 1016.74 115.968 1016.26 116.096C1015.8 116.224 1015.27 116.288 1014.68 116.288C1013.7 116.288 1012.82 116.084 1012.02 115.676C1011.22 115.26 1010.59 114.664 1010.11 113.888C1009.64 113.104 1009.4 112.164 1009.4 111.068C1009.4 109.964 1009.64 109.024 1010.11 108.248C1010.59 107.472 1011.22 106.88 1012.02 106.472C1012.82 106.064 1013.7 105.86 1014.68 105.86C1015.26 105.86 1015.78 105.928 1016.24 106.064C1016.7 106.192 1017.09 106.34 1017.39 106.508C1017.7 106.676 1017.9 106.808 1018 106.904L1016.77 108.704C1016.71 108.648 1016.6 108.56 1016.42 108.44C1016.25 108.312 1016.03 108.196 1015.75 108.092C1015.47 107.988 1015.13 107.936 1014.74 107.936C1014.26 107.936 1013.8 108.064 1013.36 108.32C1012.92 108.576 1012.56 108.94 1012.28 109.412C1012 109.876 1011.86 110.428 1011.86 111.068C1011.86 111.708 1012 112.264 1012.28 112.736C1012.56 113.208 1012.92 113.572 1013.36 113.828C1013.8 114.084 1014.26 114.212 1014.74 114.212ZM1019.58 116V106.148H1022.13V116H1019.58ZM1020.88 103.196C1020.45 103.196 1020.08 103.04 1019.77 102.728C1019.46 102.416 1019.31 102.044 1019.31 101.612C1019.31 101.18 1019.46 100.808 1019.77 100.496C1020.08 100.176 1020.45 100.016 1020.88 100.016C1021.17 100.016 1021.44 100.092 1021.68 100.244C1021.92 100.388 1022.12 100.58 1022.26 100.82C1022.42 101.052 1022.49 101.316 1022.49 101.612C1022.49 102.044 1022.34 102.416 1022.02 102.728C1021.71 103.04 1021.33 103.196 1020.88 103.196ZM1030.54 105.86C1031.2 105.86 1031.85 105.996 1032.47 106.268C1033.09 106.54 1033.61 106.976 1034.01 107.576C1034.41 108.168 1034.62 108.94 1034.62 109.892V116H1032.04V110.36C1032.04 109.472 1031.83 108.82 1031.4 108.404C1030.99 107.98 1030.45 107.768 1029.78 107.768C1029.34 107.768 1028.92 107.892 1028.52 108.14C1028.12 108.388 1027.79 108.724 1027.54 109.148C1027.29 109.572 1027.17 110.06 1027.17 110.612V116H1024.6V106.148H1027.17V107.804C1027.24 107.532 1027.43 107.248 1027.74 106.952C1028.06 106.648 1028.47 106.392 1028.95 106.184C1029.44 105.968 1029.97 105.86 1030.54 105.86ZM1041.55 121.268C1040.8 121.268 1040.1 121.192 1039.45 121.04C1038.81 120.896 1038.24 120.676 1037.74 120.38C1037.23 120.092 1036.83 119.736 1036.51 119.312L1038.11 117.728C1038.28 117.936 1038.49 118.152 1038.76 118.376C1039.02 118.608 1039.37 118.8 1039.8 118.952C1040.23 119.112 1040.78 119.192 1041.45 119.192C1042.09 119.192 1042.65 119.06 1043.1 118.796C1043.57 118.532 1043.92 118.168 1044.16 117.704C1044.41 117.248 1044.53 116.72 1044.53 116.12V115.82H1047.05V116.276C1047.05 117.364 1046.81 118.276 1046.32 119.012C1045.83 119.756 1045.17 120.316 1044.34 120.692C1043.51 121.076 1042.58 121.268 1041.55 121.268ZM1044.53 116V114.176C1044.47 114.368 1044.28 114.632 1043.98 114.968C1043.68 115.304 1043.27 115.608 1042.75 115.88C1042.24 116.152 1041.63 116.288 1040.93 116.288C1040.01 116.288 1039.18 116.068 1038.45 115.628C1037.71 115.188 1037.13 114.576 1036.71 113.792C1036.28 113.008 1036.07 112.104 1036.07 111.08C1036.07 110.056 1036.28 109.152 1036.71 108.368C1037.13 107.584 1037.71 106.972 1038.45 106.532C1039.18 106.084 1040.01 105.86 1040.93 105.86C1041.62 105.86 1042.21 105.98 1042.72 106.22C1043.22 106.46 1043.63 106.736 1043.93 107.048C1044.24 107.36 1044.43 107.632 1044.51 107.864V106.148H1047.05V116H1044.53ZM1038.6 111.08C1038.6 111.712 1038.74 112.264 1039.02 112.736C1039.3 113.208 1039.67 113.572 1040.11 113.828C1040.57 114.084 1041.06 114.212 1041.58 114.212C1042.14 114.212 1042.63 114.08 1043.07 113.816C1043.51 113.552 1043.85 113.188 1044.1 112.724C1044.35 112.252 1044.48 111.704 1044.48 111.08C1044.48 110.456 1044.35 109.912 1044.1 109.448C1043.85 108.976 1043.51 108.608 1043.07 108.344C1042.63 108.072 1042.14 107.936 1041.58 107.936C1041.06 107.936 1040.57 108.068 1040.11 108.332C1039.67 108.588 1039.3 108.952 1039.02 109.424C1038.74 109.896 1038.6 110.448 1038.6 111.08Z" fill="black"/>
<defs>
<filter id="filter0_bdi_1_750" x="-9" y="-10" width="100" height="100" filterUnits="userSpaceOnUse" color-interpolation-filters="sRGB">
<feFlood flood-opacity="0" result="BackgroundImageFix"/>
<feGaussianBlur in="BackgroundImageFix" stdDeviation="5"/>
<feComposite in2="SourceAlpha" operator="in" result="effect1_backgroundBlur_1_750"/>
<feColorMatrix in="SourceAlpha" type="matrix" values="0 0 0 0 0 0 0 0 0 0 0 0 0 0 0 0 0 0 127 0" result="hardAlpha"/>
<feOffset dy="2"/>
<feGaussianBlur stdDeviation="0.5"/>
<feComposite in2="hardAlpha" operator="out"/>
<feColorMatrix type="matrix" values="0 0 0 0 0 0 0 0 0 0 0 0 0 0 0 0 0 0 0.05 0"/>
<feBlend mode="normal" in2="effect1_backgroundBlur_1_750" result="effect2_dropShadow_1_750"/>
<feBlend mode="normal" in="SourceGraphic" in2="effect2_dropShadow_1_750" result="shape"/>
<feColorMatrix in="SourceAlpha" type="matrix" values="0 0 0 0 0 0 0 0 0 0 0 0 0 0 0 0 0 0 127 0" result="hardAlpha"/>
<feOffset dy="-3"/>
<feGaussianBlur stdDeviation="4"/>
<feComposite in2="hardAlpha" operator="arithmetic" k2="-1" k3="1"/>
<feColorMatrix type="matrix" values="0 0 0 0 0 0 0 0 0 0 0 0 0 0 0 0 0 0 0.15 0"/>
<feBlend mode="normal" in2="shape" result="effect3_innerShadow_1_750"/>
</filter>
<filter id="filter1_bdi_1_750" x="174" y="-10" width="100" height="100" filterUnits="userSpaceOnUse" color-interpolation-filters="sRGB">
<feFlood flood-opacity="0" result="BackgroundImageFix"/>
<feGaussianBlur in="BackgroundImageFix" stdDeviation="5"/>
<feComposite in2="SourceAlpha" operator="in" result="effect1_backgroundBlur_1_750"/>
<feColorMatrix in="SourceAlpha" type="matrix" values="0 0 0 0 0 0 0 0 0 0 0 0 0 0 0 0 0 0 127 0" result="hardAlpha"/>
<feOffset dy="2"/>
<feGaussianBlur stdDeviation="0.5"/>
<feComposite in2="hardAlpha" operator="out"/>
<feColorMatrix type="matrix" values="0 0 0 0 0 0 0 0 0 0 0 0 0 0 0 0 0 0 0.05 0"/>
<feBlend mode="normal" in2="effect1_backgroundBlur_1_750" result="effect2_dropShadow_1_750"/>
<feBlend mode="normal" in="SourceGraphic" in2="effect2_dropShadow_1_750" result="shape"/>
<feColorMatrix in="SourceAlpha" type="matrix" values="0 0 0 0 0 0 0 0 0 0 0 0 0 0 0 0 0 0 127 0" result="hardAlpha"/>
<feOffset dy="-3"/>
<feGaussianBlur stdDeviation="4"/>
<feComposite in2="hardAlpha" operator="arithmetic" k2="-1" k3="1"/>
<feColorMatrix type="matrix" values="0 0 0 0 0 0 0 0 0 0 0 0 0 0 0 0 0 0 0.15 0"/>
<feBlend mode="normal" in2="shape" result="effect3_innerShadow_1_750"/>
</filter>
<filter id="filter2_bdi_1_750" x="357" y="-10" width="100" height="100" filterUnits="userSpaceOnUse" color-interpolation-filters="sRGB">
<feFlood flood-opacity="0" result="BackgroundImageFix"/>
<feGaussianBlur in="BackgroundImageFix" stdDeviation="5"/>
<feComposite in2="SourceAlpha" operator="in" result="effect1_backgroundBlur_1_750"/>
<feColorMatrix in="SourceAlpha" type="matrix" values="0 0 0 0 0 0 0 0 0 0 0 0 0 0 0 0 0 0 127 0" result="hardAlpha"/>
<feOffset dy="2"/>
<feGaussianBlur stdDeviation="0.5"/>
<feComposite in2="hardAlpha" operator="out"/>
<feColorMatrix type="matrix" values="0 0 0 0 0 0 0 0 0 0 0 0 0 0 0 0 0 0 0.05 0"/>
<feBlend mode="normal" in2="effect1_backgroundBlur_1_750" result="effect2_dropShadow_1_750"/>
<feBlend mode="normal" in="SourceGraphic" in2="effect2_dropShadow_1_750" result="shape"/>
<feColorMatrix in="SourceAlpha" type="matrix" values="0 0 0 0 0 0 0 0 0 0 0 0 0 0 0 0 0 0 127 0" result="hardAlpha"/>
<feOffset dy="-3"/>
<feGaussianBlur stdDeviation="4"/>
<feComposite in2="hardAlpha" operator="arithmetic" k2="-1" k3="1"/>
<feColorMatrix type="matrix" values="0 0 0 0 0 0 0 0 0 0 0 0 0 0 0 0 0 0 0.15 0"/>
<feBlend mode="normal" in2="shape" result="effect3_innerShadow_1_750"/>
</filter>
<filter id="filter3_bdi_1_750" x="542" y="-10" width="100" height="100" filterUnits="userSpaceOnUse" color-interpolation-filters="sRGB">
<feFlood flood-opacity="0" result="BackgroundImageFix"/>
<feGaussianBlur in="BackgroundImageFix" stdDeviation="5"/>
<feComposite in2="SourceAlpha" operator="in" result="effect1_backgroundBlur_1_750"/>
<feColorMatrix in="SourceAlpha" type="matrix" values="0 0 0 0 0 0 0 0 0 0 0 0 0 0 0 0 0 0 127 0" result="hardAlpha"/>
<feOffset dy="2"/>
<feGaussianBlur stdDeviation="0.5"/>
<feComposite in2="hardAlpha" operator="out"/>
<feColorMatrix type="matrix" values="0 0 0 0 0 0 0 0 0 0 0 0 0 0 0 0 0 0 0.05 0"/>
<feBlend mode="normal" in2="effect1_backgroundBlur_1_750" result="effect2_dropShadow_1_750"/>
<feBlend mode="normal" in="SourceGraphic" in2="effect2_dropShadow_1_750" result="shape"/>
<feColorMatrix in="SourceAlpha" type="matrix" values="0 0 0 0 0 0 0 0 0 0 0 0 0 0 0 0 0 0 127 0" result="hardAlpha"/>
<feOffset dy="-3"/>
<feGaussianBlur stdDeviation="4"/>
<feComposite in2="hardAlpha" operator="arithmetic" k2="-1" k3="1"/>
<feColorMatrix type="matrix" values="0 0 0 0 0 0 0 0 0 0 0 0 0 0 0 0 0 0 0.15 0"/>
<feBlend mode="normal" in2="shape" result="effect3_innerShadow_1_750"/>
</filter>
<filter id="filter4_bdi_1_750" x="727" y="-10" width="100" height="100" filterUnits="userSpaceOnUse" color-interpolation-filters="sRGB">
<feFlood flood-opacity="0" result="BackgroundImageFix"/>
<feGaussianBlur in="BackgroundImageFix" stdDeviation="5"/>
<feComposite in2="SourceAlpha" operator="in" result="effect1_backgroundBlur_1_750"/>
<feColorMatrix in="SourceAlpha" type="matrix" values="0 0 0 0 0 0 0 0 0 0 0 0 0 0 0 0 0 0 127 0" result="hardAlpha"/>
<feOffset dy="2"/>
<feGaussianBlur stdDeviation="0.5"/>
<feComposite in2="hardAlpha" operator="out"/>
<feColorMatrix type="matrix" values="0 0 0 0 0 0 0 0 0 0 0 0 0 0 0 0 0 0 0.05 0"/>
<feBlend mode="normal" in2="effect1_backgroundBlur_1_750" result="effect2_dropShadow_1_750"/>
<feBlend mode="normal" in="SourceGraphic" in2="effect2_dropShadow_1_750" result="shape"/>
<feColorMatrix in="SourceAlpha" type="matrix" values="0 0 0 0 0 0 0 0 0 0 0 0 0 0 0 0 0 0 127 0" result="hardAlpha"/>
<feOffset dy="-3"/>
<feGaussianBlur stdDeviation="4"/>
<feComposite in2="hardAlpha" operator="arithmetic" k2="-1" k3="1"/>
<feColorMatrix type="matrix" values="0 0 0 0 0 0 0 0 0 0 0 0 0 0 0 0 0 0 0.15 0"/>
<feBlend mode="normal" in2="shape" result="effect3_innerShadow_1_750"/>
</filter>
<filter id="filter5_bdi_1_750" x="912" y="-10" width="100" height="100" filterUnits="userSpaceOnUse" color-interpolation-filters="sRGB">
<feFlood flood-opacity="0" result="BackgroundImageFix"/>
<feGaussianBlur in="BackgroundImageFix" stdDeviation="5"/>
<feComposite in2="SourceAlpha" operator="in" result="effect1_backgroundBlur_1_750"/>
<feColorMatrix in="SourceAlpha" type="matrix" values="0 0 0 0 0 0 0 0 0 0 0 0 0 0 0 0 0 0 127 0" result="hardAlpha"/>
<feOffset dy="2"/>
<feGaussianBlur stdDeviation="0.5"/>
<feComposite in2="hardAlpha" operator="out"/>
<feColorMatrix type="matrix" values="0 0 0 0 0 0 0 0 0 0 0 0 0 0 0 0 0 0 0.05 0"/>
<feBlend mode="normal" in2="effect1_backgroundBlur_1_750" result="effect2_dropShadow_1_750"/>
<feBlend mode="normal" in="SourceGraphic" in2="effect2_dropShadow_1_750" result="shape"/>
<feColorMatrix in="SourceAlpha" type="matrix" values="0 0 0 0 0 0 0 0 0 0 0 0 0 0 0 0 0 0 127 0" result="hardAlpha"/>
<feOffset dy="-3"/>
<feGaussianBlur stdDeviation="4"/>
<feComposite in2="hardAlpha" operator="arithmetic" k2="-1" k3="1"/>
<feColorMatrix type="matrix" values="0 0 0 0 0 0 0 0 0 0 0 0 0 0 0 0 0 0 0.15 0"/>
<feBlend mode="normal" in2="shape" result="effect3_innerShadow_1_750"/>
</filter>
</defs>
</svg>
